# xmcd
#
# Track frame offsets:
#	150
#	19495
#	36837
#	59030
#	76762
#	96037
#	113630
#	128660
#	143860
#	158507
#	171240
#	187432
#	199540
#	212932
#
# Disc length: 3043 seconds
#
# Revision: 1
# Processed by: cddbd v1.5PL3 Copyright (c) Steve Scherf et al.
# Submitted via: CDex 1.50Beta5
#
DISCID=c60be10e
DTITLE=和田アキ子 - だってしょうがないじゃない
DYEAR=1900
DGENRE=
TTITLE0=だってしょうがないじゃない
TTITLE1=抱擁
TTITLE2=もう一度ふたりで歌いたい
TTITLE3=バ・カ・ダ・ネ
TTITLE4=君が野に咲くバラなら
TTITLE5=酔ったからって
TTITLE6=シャラップ
TTITLE7=コーラス・ガール
TTITLE8=二杯目のお酒
TTITLE9=古い日記
TTITLE10=あの鐘を鳴らすのはあなた
TTITLE11=笑って許して
TTITLE12=どしゃ降りの雨の中で
TTITLE13=星空の孤独
EXTD=
EXTT0=
EXTT1=
EXTT2=
EXTT3=
EXTT4=
EXTT5=
EXTT6=
EXTT7=
EXTT8=
EXTT9=
EXTT10=
EXTT11=
EXTT12=
EXTT13=
PLAYORDER=
